<svg width="203" height="91" viewBox="0 0 203 91" fill="none" xmlns="http://www.w3.org/2000/svg">
    <rect width="100" height="91" rx="6" fill="white" />
    <g clip-path="url(#clip0_7_3)">
        <path
            d="M47 67.5C34.8721 67.5 25 57.6279 25 45.5C25 40.1396 26.9551 34.9619 30.5 30.9443C30.9727 30.4072 31.7891 30.3535 32.3262 30.8262C32.8633 31.2988 32.917 32.1152 32.4443 32.6523C29.3184 36.1973 27.5889 40.7627 27.5889 45.4892C27.5889 56.1885 36.3008 64.9004 47 64.9004C57.6992 64.9004 66.4111 56.1885 66.4111 45.4892C66.4111 34.79 57.6992 26.0889 47 26.0889C44.0674 26.0781 41.1777 26.7441 38.5459 28.0225C37.9014 28.334 37.1279 28.0654 36.8164 27.4209C36.5049 26.7764 36.7734 26.0029 37.418 25.6914C40.4043 24.2412 43.6807 23.4892 47 23.5C59.1279 23.5 69 33.3721 69 45.5C69 57.6279 59.1279 67.5 47 67.5Z"
            fill="#36496D" />
        <path
            d="M62.5332 45.5C62.5332 54.0723 55.583 61.0332 47 61.0332C38.417 61.0332 31.4668 54.0723 31.4668 45.5C31.4668 36.9277 38.4277 29.9668 47 29.9668C55.5723 29.9668 62.5332 36.9277 62.5332 45.5Z"
            fill="#E3A6B6" />
        <path
            d="M47 62.3223C37.7187 62.3223 30.1777 54.7812 30.1777 45.5C30.1777 36.2187 37.7187 28.6777 47 28.6777C56.2812 28.6777 63.8223 36.2187 63.8223 45.5C63.8223 54.7812 56.2812 62.3223 47 62.3223V62.3223ZM47 31.2666C39.1475 31.2666 32.7666 37.6475 32.7666 45.5C32.7666 53.3525 39.1475 59.7334 47 59.7334C54.8525 59.7334 61.2334 53.3418 61.2334 45.5C61.2334 37.6582 54.8525 31.2666 47 31.2666V31.2666Z"
            fill="#36496D" />
        <path
            d="M46.5811 50.001C45.6357 50.001 44.7334 49.625 44.0566 48.959L40.5762 45.4678C40.0713 44.9629 40.0713 44.1465 40.5762 43.6416C41.0811 43.1367 41.8975 43.1367 42.4023 43.6416L45.8936 47.1328C46.2803 47.5088 46.8926 47.5088 47.2686 47.1328L52.6182 41.7725C53.123 41.2676 53.9395 41.2676 54.4443 41.7725C54.9492 42.2773 54.9492 43.0937 54.4443 43.5986L49.1055 48.959C48.4395 49.625 47.5264 50.001 46.5811 50.001Z"
            fill="#36496D" />
    </g>


    <defs>
        <clipPath id="clip0_7_3">
            <rect width="44" height="44" fill="white" transform="translate(25 23.5)" />
        </clipPath>
    </defs>
</svg>